<svg xmlns="http://www.w3.org/2000/svg" width="200" height="44" viewBox="0 0 200 44" shape-rendering="crispEdges"><style>
.fade{animation:fade .9s both}
@keyframes fade{from{opacity:0}}
.tw{animation:tw 3.2s steps(1) infinite both}
@keyframes tw{0%,100%{opacity:1}50%{opacity:.25}}
.bl{animation:bl 2.4s steps(1) infinite both}
@keyframes bl{0%,60%{opacity:1}61%,100%{opacity:0}}
.fl{animation:fl 6s steps(1) infinite both}
@keyframes fl{0%,91%,95%,100%{opacity:1}93%,97%{opacity:.4}}
.zoom{transform-origin:415px 250px;animation:zoom 1.6s steps(8) both}
.walk{transform-origin:415px 250px;animation:walk .7s steps(5) both}
@keyframes walk{from{transform:scale(.8);opacity:.3}to{transform:scale(1);opacity:1}}
@keyframes zoom{from{transform:scale(.4);opacity:0}to{transform:scale(1);opacity:1}}
.cl{animation:cl linear infinite}
@keyframes cl{from{transform:translateX(-260px)}to{transform:translateX(900px)}}
.pl{animation:pl 52s steps(500) infinite}
@keyframes pl{0%,55%{transform:translateX(-40px)}100%{transform:translateX(900px)}}
.ss{animation:ss 17s steps(14) infinite;opacity:0}
@keyframes ss{0%,88%{transform:translate(0,0);opacity:0}89%{opacity:1}100%{transform:translate(110px,60px);opacity:0}}
.c1{animation:c1 19s steps(430) infinite}
@keyframes c1{from{transform:translateX(-30px)}to{transform:translateX(860px)}}
.c2{animation:c2 27s steps(430) infinite}
@keyframes c2{from{transform:translateX(860px)}to{transform:translateX(-30px)}}
@media (prefers-reduced-motion:reduce){*{animation:none!important}}
</style><rect x="0" y="0" width="200" height="44" fill="#0a0f22" /><rect x="0" y="0" width="200" height="2" fill="#ffd166" /><rect x="0" y="42" width="200" height="2" fill="#ffd166" /><rect x="0" y="0" width="2" height="44" fill="#ffd166" /><rect x="198" y="0" width="2" height="44" fill="#ffd166" /><path d="M57 15h8v2h-8zM57 17h2v2h-2zM57 19h6v2h-6zM57 21h2v2h-2zM57 23h8v2h-8zM67 15h2v2h-2zM73 15h2v2h-2zM67 17h4v2h-4zM73 17h2v2h-2zM67 19h2v2h-2zM71 19h4v2h-4zM67 21h2v2h-2zM73 21h2v2h-2zM67 23h2v2h-2zM73 23h2v2h-2zM77 15h6v2h-6zM79 17h2v2h-2zM79 19h2v2h-2zM79 21h2v2h-2zM79 23h2v2h-2zM85 15h8v2h-8zM85 17h2v2h-2zM85 19h6v2h-6zM85 21h2v2h-2zM85 23h8v2h-8zM95 15h6v2h-6zM95 17h2v2h-2zM101 17h2v2h-2zM95 19h6v2h-6zM95 21h2v2h-2zM101 21h2v2h-2zM95 23h2v2h-2zM101 23h2v2h-2zM109 15h2v2h-2zM109 17h2v2h-2zM109 19h2v2h-2zM109 21h2v2h-2zM109 23h6v2h-6zM117 15h8v2h-8zM117 17h2v2h-2zM117 19h6v2h-6zM117 21h2v2h-2zM117 23h8v2h-8zM127 15h8v2h-8zM127 17h2v2h-2zM127 19h6v2h-6zM127 21h2v2h-2zM127 23h2v2h-2zM137 15h6v2h-6zM139 17h2v2h-2zM139 19h2v2h-2zM139 21h2v2h-2zM139 23h2v2h-2z" fill="#ffe8b2" /></svg>
